<svg width="20" height="20" viewBox="0 0 20 20" fill="none" xmlns="http://www.w3.org/2000/svg">
<g clip-path="url(#clip0_34_907)">
<path d="M9.46401 20C14.1607 20 17.0832 16.5392 17.0832 12.0742C17.0832 10.3908 16.809 8.87083 14.8982 8.41417C15.3632 7.14083 16.7048 3.4575 16.7048 2.2775C16.7048 1.23833 16.0798 0.3675 14.9657 0.3675C13.1898 0.3675 11.5982 5.51167 11.0998 6.73833C10.714 5.625 8.90734 0 7.31484 0C6.07734 0 5.49651 0.894167 5.49651 2.01917C5.49651 3.39833 6.85734 6.9725 7.35068 8.3475C7.10068 8.2575 6.82984 8.17917 6.55401 8.17917C5.62234 8.17917 4.63151 9.31583 4.63151 10.2342C4.63151 10.5817 4.82651 11.07 4.94984 11.3942C3.48151 11.785 2.91651 12.7458 2.91651 14.195C2.91234 17.015 5.63568 20 9.46401 20ZM13.489 4.21917C13.649 3.73833 14.329 1.7075 14.9657 1.7075C15.3082 1.7075 15.3998 2.055 15.3998 2.3325C15.3998 3.07833 13.864 7.2 13.5248 8.11333L12.1715 7.87917L13.489 4.21917ZM6.74651 1.8875V1.88667C6.74651 1.42167 7.32401 0.101667 8.58901 3.72667L9.96651 7.645C9.34568 7.59417 8.86401 7.5275 8.55818 7.7C8.12401 6.575 6.74651 3.02417 6.74651 1.8875ZM6.65484 9.53083L6.65568 9.53167C7.82151 9.53167 9.32651 13.2267 9.32651 13.7267C9.32651 13.9258 9.13151 14.1717 8.90484 14.1717C8.07234 14.1717 5.84318 11.1675 5.84318 10.355C5.84651 10.0542 6.34818 9.53083 6.65484 9.53083ZM5.31484 12.5892C5.76818 12.5892 7.47568 14.945 7.47568 15.445C7.47568 15.6367 7.16901 15.7692 7.01068 15.7692C6.36984 15.7692 6.11901 15.1633 4.97734 13.7617C3.79484 14.9217 5.79318 17.1558 7.29818 17.1558C8.33651 17.1558 9.01318 16.2108 8.81068 15.515C8.95818 15.515 9.14068 15.5267 9.27651 15.4917C9.32068 16.55 9.63901 17.8117 10.9365 17.9017C10.9365 17.8667 11.0165 17.6242 11.0165 17.6125C11.0165 16.9325 10.5948 16.3392 10.5948 15.6475C10.5948 14.5417 11.4582 13.4717 12.334 12.8467C12.6523 12.6125 13.039 12.4675 13.4123 12.335C13.799 12.1908 14.209 12.0225 14.5023 11.7333C14.4582 11.2958 14.2757 10.9092 13.8298 10.9092C12.7273 10.9092 9.02984 11.0658 9.02984 9.35833C9.02984 9.09667 9.03401 8.84667 9.72318 8.84667C11.009 8.84667 14.2732 9.15917 15.2282 9.98333C15.9482 10.6125 16.1957 14.405 13.994 16.8075L13.9915 16.8083C12.8332 18.0583 11.3523 18.7067 9.62484 18.7067C7.26068 18.7067 5.39318 17.4333 4.49401 15.2575C3.81318 13.5625 4.64568 12.5892 5.31484 12.5892ZM10.0657 11.8858C10.4532 12.0075 10.8507 12.0433 11.249 12.1208C10.954 12.3317 10.6923 12.59 10.4407 12.8667C10.329 12.535 10.1932 12.2108 10.0657 11.8858Z" fill="#505F79"/>
</g>
<defs>
<clipPath id="clip0_34_907">
<rect width="20" height="20" fill="white"/>
</clipPath>
</defs>
</svg>
